<?xml version="1.0" standalone="no"?>
<!DOCTYPE svg PUBLIC "-//W3C//DTD SVG 20010904//EN"
 "http://www.w3.org/TR/2001/REC-SVG-20010904/DTD/svg10.dtd">
<svg version="1.0" xmlns="http://www.w3.org/2000/svg"
 width="300.000000pt" height="300.000000pt" viewBox="0 0 300.000000 300.000000"
 preserveAspectRatio="xMidYMid meet">
<metadata>
Created by potrace 1.11, written by Peter Selinger 2001-2013
</metadata>
<g transform="translate(0.000000,300.000000) scale(0.100000,-0.100000)"
fill="#000000" stroke="none">
<path d="M910 2616 l-585 -294 588 -293 587 -294 587 294 588 293 -585 294
c-322 161 -587 293 -590 293 -3 0 -268 -132 -590 -293z m1055 -23 l375 -188 0
-53 c0 -46 3 -54 25 -64 14 -6 25 -14 25 -17 0 -3 -200 -106 -445 -229 l-445
-222 -445 222 c-245 123 -445 225 -445 228 0 3 200 105 445 228 l445 222 40
-20 40 -20 0 50 c0 27 2 50 5 50 3 0 174 -84 380 -187z"/>
<path d="M160 1755 l0 -565 85 -42 85 -42 0 -48 c0 -27 -2 -48 -5 -48 -3 0
-24 9 -45 20 l-40 20 0 -50 c0 -54 -3 -56 -40 -35 -14 8 -28 14 -32 15 -5 0
-8 -67 -8 -150 l0 -150 168 -84 167 -83 83 40 82 41 0 68 c0 38 2 68 5 68 3 0
115 -55 250 -122 l245 -123 0 -152 0 -153 170 -85 170 -85 170 85 170 85 0
153 0 152 245 123 c135 67 247 122 250 122 3 0 5 -30 5 -68 l0 -68 83 -41 82
-40 168 83 167 84 0 820 0 820 -670 -335 -670 -335 -170 85 -170 85 0 -50 0
-50 -375 187 -375 188 0 50 0 50 -125 63 -125 62 0 -565z m590 -140 l250 -125
0 -53 c0 -51 1 -54 35 -70 20 -9 38 -17 40 -17 3 0 5 23 5 50 l0 50 40 -20
c39 -20 40 -22 40 -73 l0 -53 85 -42 85 -42 0 -100 c0 -55 -3 -100 -7 -100 -5
1 -19 7 -33 15 -37 21 -40 19 -40 -30 0 -25 -2 -45 -5 -45 -3 0 -24 9 -45 20
l-40 20 0 -50 c0 -27 -2 -50 -5 -50 -3 0 -37 16 -75 35 -38 19 -72 35 -75 35
-3 0 -5 -20 -5 -45 0 -25 -2 -45 -5 -45 -3 0 -79 37 -170 82 l-165 83 0 47 c0
27 2 48 5 48 3 0 24 -9 45 -20 l40 -20 0 53 c0 53 0 53 -45 75 l-45 22 0 -50
c0 -28 -2 -50 -5 -50 -3 0 -41 18 -85 40 l-80 40 0 54 c0 52 -1 53 -40 71 -39
18 -40 19 -40 70 0 51 -1 52 -40 70 l-40 18 0 104 0 103 80 -40 80 -40 0 -50
c0 -48 1 -50 40 -70 21 -11 42 -20 45 -20 3 0 5 22 5 48 0 47 -1 48 -45 70
-44 21 -45 22 -45 72 0 27 2 50 5 50 3 0 118 -56 255 -125z m670 -1055 l80
-40 0 -100 c0 -55 -2 -100 -5 -100 -2 0 -20 8 -40 17 -34 16 -35 19 -35 70 0
53 0 53 -45 75 -44 22 -45 23 -45 70 0 26 2 48 5 48 3 0 41 -18 85 -40z"/>
<path d="M1080 1190 c0 -48 1 -50 40 -70 l40 -20 0 53 c0 51 -1 54 -35 70 -20
9 -38 17 -40 17 -3 0 -5 -22 -5 -50z"/>
<path d="M910 1172 c0 -47 1 -48 45 -70 l45 -22 0 50 c0 48 -1 50 -40 70 -21
11 -42 20 -45 20 -3 0 -5 -22 -5 -48z"/>
</g>
</svg>
